<?xml version="1.0" encoding="UTF-8"?>
<svg version="1.1" xmlns="http://www.w3.org/2000/svg" width="290" height="174">
<path d="M0 0 C15.22264747 10.38502085 25.54010055 26.03986657 29.6875 43.97265625 C33.14336234 62.57191539 30.16759854 81.70986314 19.43408203 97.4621582 C10.33273716 110.32659176 -0.80415094 119.86370834 -16 125 C-18.7578125 125.19140625 -18.7578125 125.19140625 -21 125 C-22.64374286 123.35625714 -22.18637416 121.41706323 -22.24609375 119.15234375 C-22.27896484 118.15396484 -22.31183594 117.15558594 -22.34570312 116.12695312 C-22.40611154 114.02808218 -22.46348587 111.92912135 -22.51757812 109.83007812 C-22.7662648 102.49616731 -23.21010809 95.49695756 -27 89 C-26.10539062 88.78085938 -25.21078125 88.56171875 -24.2890625 88.3359375 C-11.43157517 85.08353726 -11.43157517 85.08353726 -1.34765625 76.91796875 C3.81556274 67.8935599 5.27512817 56.10051688 2.78125 46.04296875 C2.01600826 43.74743913 2.01600826 43.74743913 -0.125 41.25 C-2.77618299 36.65461615 -2.25443716 32.64991055 -2.04296875 27.4375 C-2.00181691 24.14535255 -2.35676497 21.22108532 -3 18 C-4.89828157 18.59642978 -6.79353501 19.20250163 -8.6875 19.8125 C-10.27111328 20.31716797 -10.27111328 20.31716797 -11.88671875 20.83203125 C-15.00453197 21.86686151 -15.00453197 21.86686151 -17.48046875 23.65625 C-20.80996405 25.43198083 -22.90249039 25.10344633 -26.625 24.6875 C-33.87177244 24.00128117 -40.97118167 23.49639771 -48.21875 24.40234375 C-55.33941902 25.2757903 -59.4878429 24.94098045 -65.69921875 21.28125 C-69.03179245 19.42541948 -72.27963735 18.75785165 -76 18 C-76.94579007 25.89548781 -76.94579007 25.89548781 -76.25 33.75 C-75.92484049 37.97707357 -77.33727706 39.76425429 -79.7734375 43.10546875 C-83.80123056 49.32674147 -82.73003587 58.9740669 -81.46875 65.9296875 C-79.46295049 73.10260096 -76.36741199 78.84734001 -70 83 C-64.17415698 85.73683817 -58.27183571 87.60625873 -52 89 C-52.268125 89.515625 -52.53625 90.03125 -52.8125 90.5625 C-54.12938801 93.16624706 -54.12938801 93.16624706 -55.375 96.6875 C-57 100 -57 100 -58.75 100.9375 C-59.4925 100.958125 -60.235 100.97875 -61 101 C-62.093125 101.103125 -63.18625 101.20625 -64.3125 101.3125 C-68.66514975 100.94363138 -71.68912818 99.78607163 -75 97 C-75.99580706 95.67314717 -76.95301326 94.31667025 -77.875 92.9375 C-81.04232632 88.3156135 -84.65570867 87.14011548 -90 86 C-89.2575 86.721875 -88.515 87.44375 -87.75 88.1875 C-83.25977032 92.77978036 -80.191655 97.28704485 -77.34375 103.01171875 C-75.7391076 105.38602974 -74.68878835 106.05243058 -72 107 C-69.35498734 107.45448067 -69.35498734 107.45448067 -66.5625 107.625 C-65.63566406 107.69976562 -64.70882812 107.77453125 -63.75390625 107.8515625 C-61.16239055 107.99124703 -58.59461238 108.02825349 -56 108 C-55.94616152 110.45862401 -55.90640962 112.9160755 -55.875 115.375 C-55.85824219 116.07367188 -55.84148437 116.77234375 -55.82421875 117.4921875 C-55.80655733 119.32897486 -55.89696739 121.16601963 -56 123 C-58 125 -58 125 -61.3125 125.0625 C-74.58618242 122.99074558 -87.20329621 112.22665179 -95.0546875 101.81640625 C-107.7253797 83.47189003 -111.21932055 65.50754813 -108.5625 43.3515625 C-105.94951433 31.16851681 -99.25762765 20.15380429 -91 11 C-90.39671875 10.30390625 -89.7934375 9.6078125 -89.171875 8.890625 C-79.76306013 -1.30884658 -68.05117119 -6.30507547 -55 -10 C-54.37681885 -10.17958252 -53.7536377 -10.35916504 -53.11157227 -10.54418945 C-34.52219772 -14.55694957 -15.89393955 -9.54886224 0 0 Z " fill="#FDFDFD" transform="translate(184,30)"/>
</svg>
